<?xml version="1.0" encoding="UTF-8"?>
<svg width="16px" height="16px" viewBox="0 0 16 16" version="1.1" xmlns="http://www.w3.org/2000/svg" xmlns:xlink="http://www.w3.org/1999/xlink">
    <title>favicon</title>
    <g id="Page-1" stroke="none" stroke-width="1" fill="none" fill-rule="evenodd">
        <g id="favicon">
            <path d="M2.5638852,-1.03584031e-16 L13.4361148,1.03584031e-16 C14.3276335,-6.01853049e-17 14.6509198,0.0928256111 14.9768457,0.267132704 C15.3027716,0.441439796 15.5585602,0.697228371 15.7328673,1.0231543 C15.9071744,1.34908022 16,1.67236646 16,2.5638852 L16,13.4361148 C16,14.3276335 15.9071744,14.6509198 15.7328673,14.9768457 C15.5585602,15.3027716 15.3027716,15.5585602 14.9768457,15.7328673 C14.6509198,15.9071744 14.3276335,16 13.4361148,16 L2.5638852,16 C1.67236646,16 1.34908022,15.9071744 1.0231543,15.7328673 C0.697228371,15.5585602 0.441439796,15.3027716 0.267132704,14.9768457 C0.0928256111,14.6509198 4.01235366e-17,14.3276335 -6.90560205e-17,13.4361148 L6.90560205e-17,2.5638852 C-4.01235366e-17,1.67236646 0.0928256111,1.34908022 0.267132704,1.0231543 C0.441439796,0.697228371 0.697228371,0.441439796 1.0231543,0.267132704 C1.34908022,0.0928256111 1.67236646,6.01853049e-17 2.5638852,-1.03584031e-16 Z" id="Background" fill="#E14680"></path>
            <path d="M5.08151794,12.6676283 C5.32596239,12.6676283 5.52735128,12.7426283 5.68568461,12.8926283 C5.84401794,13.0426283 5.92318461,13.2287394 5.92318461,13.4509617 C5.92318461,13.6676283 5.84401794,13.8495728 5.68568461,13.996795 C5.52735128,14.1440172 5.32596239,14.2176283 5.08151794,14.2176283 C4.83151794,14.2176283 4.62735128,14.1440172 4.46901794,13.996795 C4.31068461,13.8495728 4.23151794,13.6676283 4.23151794,13.4509617 C4.23151794,13.2287394 4.31068461,13.0426283 4.46901794,12.8926283 C4.62735128,12.7426283 4.83151794,12.6676283 5.08151794,12.6676283 Z M9.8651749,8.30096165 L9.8651749,12.284295 C9.8651749,12.9009617 9.69156379,13.3759617 9.34434157,13.709295 C8.99711934,14.0426283 8.52906379,14.209295 7.9401749,14.209295 C7.32350823,14.209295 6.82906379,14.034295 6.45684157,13.684295 C6.12597737,13.3731839 5.94216393,12.945749 5.90540124,12.4019905 L5.89850823,12.1926283 L7.3151749,12.1926283 C7.3151749,12.4370728 7.3651749,12.621795 7.4651749,12.746795 C7.5651749,12.871795 7.70961934,12.934295 7.89850823,12.934295 C8.07073046,12.934295 8.20406379,12.8787394 8.29850823,12.7676283 C8.37406379,12.6787394 8.41939712,12.5578505 8.43450823,12.4049617 L8.4401749,12.284295 L8.4401749,8.30096165 L9.8651749,8.30096165 Z M12.4321652,8.21762832 C13.0766096,8.21762832 13.5960541,8.37179499 13.9904985,8.68012832 C14.3411158,8.95420239 14.5468771,9.32374972 14.6077825,9.78877029 L14.6238319,9.96762832 L13.0821652,9.96762832 C13.0710541,9.77873943 13.0016096,9.63012832 12.8738319,9.52179499 C12.7460541,9.41346165 12.5821652,9.35929499 12.3821652,9.35929499 C12.209943,9.35929499 12.0710541,9.40512832 11.9654985,9.49679499 C11.859943,9.58846165 11.8071652,9.7204061 11.8071652,9.89262832 C11.8071652,10.0815172 11.8960541,10.2287394 12.0738319,10.334295 C12.2516096,10.4398505 12.5293874,10.5537394 12.9071652,10.6759617 C13.284943,10.8037394 13.5918874,10.9259617 13.8279985,11.0426283 C14.0641096,11.159295 14.2682763,11.3287394 14.4404985,11.5509617 C14.6127207,11.7731839 14.6988319,12.059295 14.6988319,12.409295 C14.6988319,12.7426283 14.6141096,13.0454061 14.4446652,13.3176283 C14.2752207,13.5898505 14.0293874,13.8065172 13.7071652,13.9676283 C13.384943,14.1287394 13.0043874,14.209295 12.5654985,14.209295 C12.1377207,14.209295 11.7543874,14.1398505 11.4154985,14.0009617 C11.0766096,13.8620728 10.8057763,13.6565172 10.6029985,13.384295 C10.434017,13.1574431 10.3315865,12.892011 10.2957069,12.5879987 L10.2821652,12.4009617 L11.7988319,12.4009617 C11.8210541,12.6176283 11.8960541,12.7829061 12.0238319,12.896795 C12.1516096,13.0106839 12.3182763,13.0676283 12.5238319,13.0676283 C12.734943,13.0676283 12.9016096,13.0190172 13.0238319,12.921795 C13.1460541,12.8245728 13.2071652,12.6898505 13.2071652,12.5176283 C13.2071652,12.3731839 13.1585541,12.2537394 13.0613319,12.159295 C12.9641096,12.0648505 12.8446652,11.9870728 12.7029985,11.9259617 L12.5043319,11.8486283 C12.466443,11.8350728 12.4261652,11.8211839 12.3834985,11.8069617 L12.0988319,11.7176283 C11.7210541,11.6009617 11.4127207,11.484295 11.1738319,11.3676283 C10.934943,11.2509617 10.7293874,11.0787394 10.5571652,10.8509617 C10.384943,10.6231839 10.2988319,10.3259617 10.2988319,9.95929499 C10.2988319,9.41485054 10.4960541,8.98846165 10.8904985,8.68012832 C11.284943,8.37179499 11.7988319,8.21762832 12.4321652,8.21762832 Z" id=".JS" fill="#FFFFFF" fill-rule="nonzero"></path>
        </g>
    </g>
</svg>