<?xml version="1.0" encoding="UTF-8"?>
<svg width="116px" height="179px" viewBox="0 0 116 179" version="1.1" xmlns="http://www.w3.org/2000/svg" xmlns:xlink="http://www.w3.org/1999/xlink">
    <title>Symbol-Dark</title>
    <g id="Symbol-Dark" stroke="none" stroke-width="1" fill="none" fill-rule="evenodd" opacity="0.49718657">
        <path d="M79.7716703,0.502972086 C75.7410454,34.1743912 64.2034642,68.3572205 45.7619594,110.099963 L44.1871012,113.645673 C43.1262573,116.021687 42.0435544,118.422326 40.9391004,120.84885 L39.2661195,124.508209 C38.7030304,125.734572 38.1345171,126.967563 37.5605928,128.207341 L35.8226012,131.947192 C35.530235,132.573946 35.2365195,133.202437 34.9414563,133.832683 L33.1549189,137.635384 L33.1549189,137.635384 L31.3361188,141.481168 L31.3361188,141.481168 L29.4851368,145.37098 L29.4851368,145.37098 L27.6020537,149.305763 L27.6020537,149.305763 L25.6869506,153.286465 L25.6869506,153.286465 L23.7399082,157.31403 L23.7399082,157.31403 L21.7610074,161.389404 L21.7610074,161.389404 L19.750329,165.513531 L19.750329,165.513531 L18.7917262,167.256339 L32.2977262,167.256339 L32.54233,166.384594 C41.3788454,135.289972 59.4624346,128.918635 86.2440416,128.577421 L87.1017262,128.571975 C64.795805,133.098419 49.803884,147.955152 42.1259632,173.142172 L40.8928884,178.256917 L-4.40536496e-13,178.256917 L4.63551528,170.051606 C37.2291702,116.039762 62.2745552,59.5235513 79.7716703,0.502972086 Z M97.9758449,66.5473387 L115.900278,115.547339 L57.7715987,115.547339 L75.6960315,66.5473387 L97.9758449,66.5473387 Z M92.0169573,73.5473387 L81.6549191,73.5473387 L70.99461,108.547339 L102.677266,108.547339 L92.0169573,73.5473387 Z M87.1017262,-1.42108547e-14 L96.672243,58.5473387 L77.5312094,58.5473387 L87.1017262,-1.42108547e-14 Z M87.1017262,0.547338717 L83.1017262,51.5473387 L91.1017262,51.5473387 L87.1017262,0.547338717 Z" id="Shape" fill="#000000" fill-rule="nonzero"></path>
    </g>
</svg>